<mxfile host="app.diagrams.net" agent="Mozilla/5.0 (Windows NT 10.0; Win64; x64) AppleWebKit/537.36 (KHTML, like Gecko) Chrome/127.0.0.0 Safari/537.36" version="24.7.7">
  <diagram id="hnPggCvS4GZ9EcFY-sRm" name="Strona-1">
    <mxGraphModel dx="1290" dy="522" grid="1" gridSize="10" guides="1" tooltips="1" connect="1" arrows="1" fold="1" page="1" pageScale="1" pageWidth="827" pageHeight="1169" math="0" shadow="0">
      <root>
        <mxCell id="0" />
        <mxCell id="1" parent="0" />
        <mxCell id="c-uvW-5XLxaHd5iYXgqR-1" value="Pojazd kolejowy" style="swimlane;fontStyle=1;align=center;verticalAlign=top;childLayout=stackLayout;horizontal=1;startSize=26;horizontalStack=0;resizeParent=1;resizeParentMax=0;resizeLast=0;collapsible=1;marginBottom=0;" parent="1" vertex="1">
          <mxGeometry x="334" y="70" width="160" height="86" as="geometry" />
        </mxCell>
        <mxCell id="c-uvW-5XLxaHd5iYXgqR-2" value="+ field: type" style="text;strokeColor=none;fillColor=none;align=left;verticalAlign=top;spacingLeft=4;spacingRight=4;overflow=hidden;rotatable=0;points=[[0,0.5],[1,0.5]];portConstraint=eastwest;" parent="c-uvW-5XLxaHd5iYXgqR-1" vertex="1">
          <mxGeometry y="26" width="160" height="26" as="geometry" />
        </mxCell>
        <mxCell id="c-uvW-5XLxaHd5iYXgqR-3" value="" style="line;strokeWidth=1;fillColor=none;align=left;verticalAlign=middle;spacingTop=-1;spacingLeft=3;spacingRight=3;rotatable=0;labelPosition=right;points=[];portConstraint=eastwest;" parent="c-uvW-5XLxaHd5iYXgqR-1" vertex="1">
          <mxGeometry y="52" width="160" height="8" as="geometry" />
        </mxCell>
        <mxCell id="c-uvW-5XLxaHd5iYXgqR-4" value="+ method(type): type" style="text;strokeColor=none;fillColor=none;align=left;verticalAlign=top;spacingLeft=4;spacingRight=4;overflow=hidden;rotatable=0;points=[[0,0.5],[1,0.5]];portConstraint=eastwest;" parent="c-uvW-5XLxaHd5iYXgqR-1" vertex="1">
          <mxGeometry y="60" width="160" height="26" as="geometry" />
        </mxCell>
        <mxCell id="c-uvW-5XLxaHd5iYXgqR-6" value="Wagon pasażerski" style="swimlane;fontStyle=1;align=center;verticalAlign=top;childLayout=stackLayout;horizontal=1;startSize=26;horizontalStack=0;resizeParent=1;resizeParentMax=0;resizeLast=0;collapsible=1;marginBottom=0;" parent="1" vertex="1">
          <mxGeometry x="200" y="300" width="190" height="112" as="geometry" />
        </mxCell>
        <mxCell id="c-uvW-5XLxaHd5iYXgqR-7" value="Maksymalna liczba pasażerów int " style="text;strokeColor=none;fillColor=none;align=left;verticalAlign=top;spacingLeft=4;spacingRight=4;overflow=hidden;rotatable=0;points=[[0,0.5],[1,0.5]];portConstraint=eastwest;" parent="c-uvW-5XLxaHd5iYXgqR-6" vertex="1">
          <mxGeometry y="26" width="190" height="26" as="geometry" />
        </mxCell>
        <mxCell id="c-uvW-5XLxaHd5iYXgqR-10" value="Aktualna liczba pasażerów int" style="text;strokeColor=none;fillColor=none;align=left;verticalAlign=top;spacingLeft=4;spacingRight=4;overflow=hidden;rotatable=0;points=[[0,0.5],[1,0.5]];portConstraint=eastwest;" parent="c-uvW-5XLxaHd5iYXgqR-6" vertex="1">
          <mxGeometry y="52" width="190" height="26" as="geometry" />
        </mxCell>
        <mxCell id="c-uvW-5XLxaHd5iYXgqR-8" value="" style="line;strokeWidth=1;fillColor=none;align=left;verticalAlign=middle;spacingTop=-1;spacingLeft=3;spacingRight=3;rotatable=0;labelPosition=right;points=[];portConstraint=eastwest;" parent="c-uvW-5XLxaHd5iYXgqR-6" vertex="1">
          <mxGeometry y="78" width="190" height="8" as="geometry" />
        </mxCell>
        <mxCell id="c-uvW-5XLxaHd5iYXgqR-9" value="+ method(type): type" style="text;strokeColor=none;fillColor=none;align=left;verticalAlign=top;spacingLeft=4;spacingRight=4;overflow=hidden;rotatable=0;points=[[0,0.5],[1,0.5]];portConstraint=eastwest;" parent="c-uvW-5XLxaHd5iYXgqR-6" vertex="1">
          <mxGeometry y="86" width="190" height="26" as="geometry" />
        </mxCell>
        <mxCell id="c-uvW-5XLxaHd5iYXgqR-12" value="Wagon towarowy" style="swimlane;fontStyle=1;align=center;verticalAlign=top;childLayout=stackLayout;horizontal=1;startSize=26;horizontalStack=0;resizeParent=1;resizeParentMax=0;resizeLast=0;collapsible=1;marginBottom=0;" parent="1" vertex="1">
          <mxGeometry x="460" y="300" width="200" height="112" as="geometry" />
        </mxCell>
        <mxCell id="c-uvW-5XLxaHd5iYXgqR-13" value="Maksymalna ładowność double" style="text;strokeColor=none;fillColor=none;align=left;verticalAlign=top;spacingLeft=4;spacingRight=4;overflow=hidden;rotatable=0;points=[[0,0.5],[1,0.5]];portConstraint=eastwest;" parent="c-uvW-5XLxaHd5iYXgqR-12" vertex="1">
          <mxGeometry y="26" width="200" height="26" as="geometry" />
        </mxCell>
        <mxCell id="c-uvW-5XLxaHd5iYXgqR-16" value="Aktualna ładowność double" style="text;strokeColor=none;fillColor=none;align=left;verticalAlign=top;spacingLeft=4;spacingRight=4;overflow=hidden;rotatable=0;points=[[0,0.5],[1,0.5]];portConstraint=eastwest;" parent="c-uvW-5XLxaHd5iYXgqR-12" vertex="1">
          <mxGeometry y="52" width="200" height="26" as="geometry" />
        </mxCell>
        <mxCell id="c-uvW-5XLxaHd5iYXgqR-14" value="" style="line;strokeWidth=1;fillColor=none;align=left;verticalAlign=middle;spacingTop=-1;spacingLeft=3;spacingRight=3;rotatable=0;labelPosition=right;points=[];portConstraint=eastwest;" parent="c-uvW-5XLxaHd5iYXgqR-12" vertex="1">
          <mxGeometry y="78" width="200" height="8" as="geometry" />
        </mxCell>
        <mxCell id="c-uvW-5XLxaHd5iYXgqR-15" value="+ method(type): type" style="text;strokeColor=none;fillColor=none;align=left;verticalAlign=top;spacingLeft=4;spacingRight=4;overflow=hidden;rotatable=0;points=[[0,0.5],[1,0.5]];portConstraint=eastwest;" parent="c-uvW-5XLxaHd5iYXgqR-12" vertex="1">
          <mxGeometry y="86" width="200" height="26" as="geometry" />
        </mxCell>
        <mxCell id="c-uvW-5XLxaHd5iYXgqR-18" value="Lokomotywa" style="swimlane;fontStyle=1;align=center;verticalAlign=top;childLayout=stackLayout;horizontal=1;startSize=26;horizontalStack=0;resizeParent=1;resizeParentMax=0;resizeLast=0;collapsible=1;marginBottom=0;" parent="1" vertex="1">
          <mxGeometry x="319" y="510" width="190" height="86" as="geometry" />
        </mxCell>
        <mxCell id="c-uvW-5XLxaHd5iYXgqR-19" value="Prędkość maksymalna double" style="text;strokeColor=none;fillColor=none;align=left;verticalAlign=top;spacingLeft=4;spacingRight=4;overflow=hidden;rotatable=0;points=[[0,0.5],[1,0.5]];portConstraint=eastwest;" parent="c-uvW-5XLxaHd5iYXgqR-18" vertex="1">
          <mxGeometry y="26" width="190" height="26" as="geometry" />
        </mxCell>
        <mxCell id="c-uvW-5XLxaHd5iYXgqR-20" value="" style="line;strokeWidth=1;fillColor=none;align=left;verticalAlign=middle;spacingTop=-1;spacingLeft=3;spacingRight=3;rotatable=0;labelPosition=right;points=[];portConstraint=eastwest;" parent="c-uvW-5XLxaHd5iYXgqR-18" vertex="1">
          <mxGeometry y="52" width="190" height="8" as="geometry" />
        </mxCell>
        <mxCell id="c-uvW-5XLxaHd5iYXgqR-21" value="+ method(type): type" style="text;strokeColor=none;fillColor=none;align=left;verticalAlign=top;spacingLeft=4;spacingRight=4;overflow=hidden;rotatable=0;points=[[0,0.5],[1,0.5]];portConstraint=eastwest;" parent="c-uvW-5XLxaHd5iYXgqR-18" vertex="1">
          <mxGeometry y="60" width="190" height="26" as="geometry" />
        </mxCell>
        <mxCell id="c-uvW-5XLxaHd5iYXgqR-22" value="" style="endArrow=none;html=1;entryX=0.242;entryY=1;entryDx=0;entryDy=0;entryPerimeter=0;" parent="1" target="c-uvW-5XLxaHd5iYXgqR-9" edge="1">
          <mxGeometry width="50" height="50" relative="1" as="geometry">
            <mxPoint x="246" y="650" as="sourcePoint" />
            <mxPoint x="230" y="480" as="targetPoint" />
          </mxGeometry>
        </mxCell>
        <mxCell id="c-uvW-5XLxaHd5iYXgqR-23" value="Pasażer" style="swimlane;fontStyle=1;align=center;verticalAlign=top;childLayout=stackLayout;horizontal=1;startSize=26;horizontalStack=0;resizeParent=1;resizeParentMax=0;resizeLast=0;collapsible=1;marginBottom=0;" parent="1" vertex="1">
          <mxGeometry x="150" y="650" width="160" height="86" as="geometry" />
        </mxCell>
        <mxCell id="c-uvW-5XLxaHd5iYXgqR-24" value="+ field: type" style="text;strokeColor=none;fillColor=none;align=left;verticalAlign=top;spacingLeft=4;spacingRight=4;overflow=hidden;rotatable=0;points=[[0,0.5],[1,0.5]];portConstraint=eastwest;" parent="c-uvW-5XLxaHd5iYXgqR-23" vertex="1">
          <mxGeometry y="26" width="160" height="26" as="geometry" />
        </mxCell>
        <mxCell id="c-uvW-5XLxaHd5iYXgqR-25" value="" style="line;strokeWidth=1;fillColor=none;align=left;verticalAlign=middle;spacingTop=-1;spacingLeft=3;spacingRight=3;rotatable=0;labelPosition=right;points=[];portConstraint=eastwest;" parent="c-uvW-5XLxaHd5iYXgqR-23" vertex="1">
          <mxGeometry y="52" width="160" height="8" as="geometry" />
        </mxCell>
        <mxCell id="c-uvW-5XLxaHd5iYXgqR-26" value="Zajmuje miejsce()" style="text;strokeColor=none;fillColor=none;align=left;verticalAlign=top;spacingLeft=4;spacingRight=4;overflow=hidden;rotatable=0;points=[[0,0.5],[1,0.5]];portConstraint=eastwest;" parent="c-uvW-5XLxaHd5iYXgqR-23" vertex="1">
          <mxGeometry y="60" width="160" height="26" as="geometry" />
        </mxCell>
        <mxCell id="c-uvW-5XLxaHd5iYXgqR-27" value="" style="endArrow=none;html=1;entryX=0.71;entryY=1.038;entryDx=0;entryDy=0;entryPerimeter=0;exitX=0.5;exitY=0;exitDx=0;exitDy=0;" parent="1" source="c-uvW-5XLxaHd5iYXgqR-28" target="c-uvW-5XLxaHd5iYXgqR-15" edge="1">
          <mxGeometry width="50" height="50" relative="1" as="geometry">
            <mxPoint x="602" y="630" as="sourcePoint" />
            <mxPoint x="630" y="490" as="targetPoint" />
          </mxGeometry>
        </mxCell>
        <mxCell id="c-uvW-5XLxaHd5iYXgqR-28" value="Ładunek" style="swimlane;fontStyle=1;align=center;verticalAlign=top;childLayout=stackLayout;horizontal=1;startSize=26;horizontalStack=0;resizeParent=1;resizeParentMax=0;resizeLast=0;collapsible=1;marginBottom=0;" parent="1" vertex="1">
          <mxGeometry x="520" y="640" width="160" height="112" as="geometry" />
        </mxCell>
        <mxCell id="c-uvW-5XLxaHd5iYXgqR-29" value="+ field: type" style="text;strokeColor=none;fillColor=none;align=left;verticalAlign=top;spacingLeft=4;spacingRight=4;overflow=hidden;rotatable=0;points=[[0,0.5],[1,0.5]];portConstraint=eastwest;" parent="c-uvW-5XLxaHd5iYXgqR-28" vertex="1">
          <mxGeometry y="26" width="160" height="26" as="geometry" />
        </mxCell>
        <mxCell id="c-uvW-5XLxaHd5iYXgqR-30" value="" style="line;strokeWidth=1;fillColor=none;align=left;verticalAlign=middle;spacingTop=-1;spacingLeft=3;spacingRight=3;rotatable=0;labelPosition=right;points=[];portConstraint=eastwest;" parent="c-uvW-5XLxaHd5iYXgqR-28" vertex="1">
          <mxGeometry y="52" width="160" height="8" as="geometry" />
        </mxCell>
        <mxCell id="c-uvW-5XLxaHd5iYXgqR-31" value="Ładowany do pociągu()" style="text;strokeColor=none;fillColor=none;align=left;verticalAlign=top;spacingLeft=4;spacingRight=4;overflow=hidden;rotatable=0;points=[[0,0.5],[1,0.5]];portConstraint=eastwest;" parent="c-uvW-5XLxaHd5iYXgqR-28" vertex="1">
          <mxGeometry y="60" width="160" height="26" as="geometry" />
        </mxCell>
        <mxCell id="c-uvW-5XLxaHd5iYXgqR-32" value="Wyładowywany z pociągu()" style="text;strokeColor=none;fillColor=none;align=left;verticalAlign=top;spacingLeft=4;spacingRight=4;overflow=hidden;rotatable=0;points=[[0,0.5],[1,0.5]];portConstraint=eastwest;" parent="c-uvW-5XLxaHd5iYXgqR-28" vertex="1">
          <mxGeometry y="86" width="160" height="26" as="geometry" />
        </mxCell>
        <mxCell id="c-uvW-5XLxaHd5iYXgqR-33" value="Pociąg" style="swimlane;fontStyle=1;align=center;verticalAlign=top;childLayout=stackLayout;horizontal=1;startSize=26;horizontalStack=0;resizeParent=1;resizeParentMax=0;resizeLast=0;collapsible=1;marginBottom=0;" parent="1" vertex="1">
          <mxGeometry x="349" y="820" width="160" height="86" as="geometry" />
        </mxCell>
        <mxCell id="c-uvW-5XLxaHd5iYXgqR-34" value="Wyznaczona trasa double" style="text;strokeColor=none;fillColor=none;align=left;verticalAlign=top;spacingLeft=4;spacingRight=4;overflow=hidden;rotatable=0;points=[[0,0.5],[1,0.5]];portConstraint=eastwest;" parent="c-uvW-5XLxaHd5iYXgqR-33" vertex="1">
          <mxGeometry y="26" width="160" height="26" as="geometry" />
        </mxCell>
        <mxCell id="c-uvW-5XLxaHd5iYXgqR-35" value="" style="line;strokeWidth=1;fillColor=none;align=left;verticalAlign=middle;spacingTop=-1;spacingLeft=3;spacingRight=3;rotatable=0;labelPosition=right;points=[];portConstraint=eastwest;" parent="c-uvW-5XLxaHd5iYXgqR-33" vertex="1">
          <mxGeometry y="52" width="160" height="8" as="geometry" />
        </mxCell>
        <mxCell id="c-uvW-5XLxaHd5iYXgqR-36" value="Podąża wyznaczoną trasą()" style="text;strokeColor=none;fillColor=none;align=left;verticalAlign=top;spacingLeft=4;spacingRight=4;overflow=hidden;rotatable=0;points=[[0,0.5],[1,0.5]];portConstraint=eastwest;" parent="c-uvW-5XLxaHd5iYXgqR-33" vertex="1">
          <mxGeometry y="60" width="160" height="26" as="geometry" />
        </mxCell>
        <mxCell id="c-uvW-5XLxaHd5iYXgqR-38" value="" style="endArrow=none;html=1;entryX=0.468;entryY=1.038;entryDx=0;entryDy=0;entryPerimeter=0;exitX=0.194;exitY=-0.012;exitDx=0;exitDy=0;exitPerimeter=0;" parent="1" source="c-uvW-5XLxaHd5iYXgqR-33" target="c-uvW-5XLxaHd5iYXgqR-9" edge="1">
          <mxGeometry width="50" height="50" relative="1" as="geometry">
            <mxPoint x="340" y="720" as="sourcePoint" />
            <mxPoint x="390" y="670" as="targetPoint" />
            <Array as="points">
              <mxPoint x="360" y="630" />
              <mxPoint x="289" y="620" />
            </Array>
          </mxGeometry>
        </mxCell>
        <mxCell id="c-uvW-5XLxaHd5iYXgqR-39" value="" style="endArrow=none;html=1;entryX=0.355;entryY=1;entryDx=0;entryDy=0;entryPerimeter=0;exitX=0.888;exitY=0.023;exitDx=0;exitDy=0;exitPerimeter=0;" parent="1" source="c-uvW-5XLxaHd5iYXgqR-33" target="c-uvW-5XLxaHd5iYXgqR-15" edge="1">
          <mxGeometry width="50" height="50" relative="1" as="geometry">
            <mxPoint x="510" y="490" as="sourcePoint" />
            <mxPoint x="560" y="440" as="targetPoint" />
            <Array as="points">
              <mxPoint x="491" y="680" />
              <mxPoint x="490" y="630" />
              <mxPoint x="530" y="620" />
              <mxPoint x="540" y="550" />
            </Array>
          </mxGeometry>
        </mxCell>
        <mxCell id="c-uvW-5XLxaHd5iYXgqR-40" value="" style="endArrow=none;html=1;entryX=0.605;entryY=1.077;entryDx=0;entryDy=0;entryPerimeter=0;exitX=0.5;exitY=0;exitDx=0;exitDy=0;" parent="1" source="c-uvW-5XLxaHd5iYXgqR-33" target="c-uvW-5XLxaHd5iYXgqR-21" edge="1">
          <mxGeometry width="50" height="50" relative="1" as="geometry">
            <mxPoint x="430" y="810" as="sourcePoint" />
            <mxPoint x="460" y="660" as="targetPoint" />
          </mxGeometry>
        </mxCell>
        <mxCell id="c-uvW-5XLxaHd5iYXgqR-41" value="" style="endArrow=none;html=1;entryX=0.006;entryY=0.923;entryDx=0;entryDy=0;entryPerimeter=0;exitX=1;exitY=0.5;exitDx=0;exitDy=0;" parent="1" source="c-uvW-5XLxaHd5iYXgqR-43" target="c-uvW-5XLxaHd5iYXgqR-34" edge="1">
          <mxGeometry width="50" height="50" relative="1" as="geometry">
            <mxPoint x="230" y="870" as="sourcePoint" />
            <mxPoint x="220" y="830" as="targetPoint" />
          </mxGeometry>
        </mxCell>
        <mxCell id="c-uvW-5XLxaHd5iYXgqR-42" value="Trasa" style="swimlane;fontStyle=1;align=center;verticalAlign=top;childLayout=stackLayout;horizontal=1;startSize=26;horizontalStack=0;resizeParent=1;resizeParentMax=0;resizeLast=0;collapsible=1;marginBottom=0;" parent="1" vertex="1">
          <mxGeometry x="60" y="831" width="160" height="86" as="geometry" />
        </mxCell>
        <mxCell id="c-uvW-5XLxaHd5iYXgqR-43" value="Długość trasy double" style="text;strokeColor=none;fillColor=none;align=left;verticalAlign=top;spacingLeft=4;spacingRight=4;overflow=hidden;rotatable=0;points=[[0,0.5],[1,0.5]];portConstraint=eastwest;" parent="c-uvW-5XLxaHd5iYXgqR-42" vertex="1">
          <mxGeometry y="26" width="160" height="26" as="geometry" />
        </mxCell>
        <mxCell id="c-uvW-5XLxaHd5iYXgqR-44" value="" style="line;strokeWidth=1;fillColor=none;align=left;verticalAlign=middle;spacingTop=-1;spacingLeft=3;spacingRight=3;rotatable=0;labelPosition=right;points=[];portConstraint=eastwest;" parent="c-uvW-5XLxaHd5iYXgqR-42" vertex="1">
          <mxGeometry y="52" width="160" height="8" as="geometry" />
        </mxCell>
        <mxCell id="c-uvW-5XLxaHd5iYXgqR-45" value="+ method(type): type" style="text;strokeColor=none;fillColor=none;align=left;verticalAlign=top;spacingLeft=4;spacingRight=4;overflow=hidden;rotatable=0;points=[[0,0.5],[1,0.5]];portConstraint=eastwest;" parent="c-uvW-5XLxaHd5iYXgqR-42" vertex="1">
          <mxGeometry y="60" width="160" height="26" as="geometry" />
        </mxCell>
        <mxCell id="wdwhcdeYCh37JhhS8ltY-1" value="" style="endArrow=block;endSize=16;endFill=0;html=1;entryX=0.75;entryY=0;entryDx=0;entryDy=0;exitX=0.038;exitY=1.077;exitDx=0;exitDy=0;exitPerimeter=0;" parent="1" source="c-uvW-5XLxaHd5iYXgqR-4" target="c-uvW-5XLxaHd5iYXgqR-6" edge="1">
          <mxGeometry width="160" relative="1" as="geometry">
            <mxPoint x="174" y="230" as="sourcePoint" />
            <mxPoint x="334" y="230" as="targetPoint" />
          </mxGeometry>
        </mxCell>
        <mxCell id="wdwhcdeYCh37JhhS8ltY-2" value="" style="endArrow=block;endSize=16;endFill=0;html=1;entryX=0.155;entryY=-0.018;entryDx=0;entryDy=0;exitX=0.975;exitY=1.154;exitDx=0;exitDy=0;exitPerimeter=0;entryPerimeter=0;" parent="1" source="c-uvW-5XLxaHd5iYXgqR-4" target="c-uvW-5XLxaHd5iYXgqR-12" edge="1">
          <mxGeometry width="160" relative="1" as="geometry">
            <mxPoint x="350.0799999999999" y="168.00199999999995" as="sourcePoint" />
            <mxPoint x="352.5" y="310" as="targetPoint" />
            <Array as="points">
              <mxPoint x="490" y="220" />
            </Array>
          </mxGeometry>
        </mxCell>
        <mxCell id="wdwhcdeYCh37JhhS8ltY-3" value="" style="endArrow=block;endSize=16;endFill=0;html=1;entryX=0.463;entryY=0.012;entryDx=0;entryDy=0;entryPerimeter=0;" parent="1" target="c-uvW-5XLxaHd5iYXgqR-18" edge="1">
          <mxGeometry width="160" relative="1" as="geometry">
            <mxPoint x="420" y="160" as="sourcePoint" />
            <mxPoint x="501" y="307.9839999999999" as="targetPoint" />
            <Array as="points" />
          </mxGeometry>
        </mxCell>
      </root>
    </mxGraphModel>
  </diagram>
</mxfile>
